<svg id="Layer_1" data-name="Layer 1" xmlns="http://www.w3.org/2000/svg" width="202" height="94" viewBox="0 0 202 94"><title>amazon-logo</title><path d="M120.4648,62.7842c-9.2868,6.8534-22.75,10.4977-34.3436,10.4977A62.1516,62.1516,0,0,1,44.1689,57.2782c-.8694-.7853-.094-1.8573.9511-1.2494a84.4425,84.4425,0,0,0,41.977,11.1378,83.5125,83.5125,0,0,0,32.0181-6.5521C120.6847,59.9486,122.0009,61.6488,120.4648,62.7842Z" fill="#f90" fill-rule="evenodd"/><path d="M124.329,58.3721c-1.188-1.52-7.8513-.7205-10.8453-.3617-.9067.1087-1.0471-.6839-.23-1.2577,5.3164-3.7336,14.0265-2.6557,15.0385-1.4054,1.02,1.2606-.2681,9.9937-5.2491,14.161-.7663.6405-1.4956.2989-1.1553-.5474C123.0089,66.1614,125.5185,59.894,124.329,58.3721Z" fill="#f90" fill-rule="evenodd"/><path d="M113.6948,30.3766V26.7488a.896.896,0,0,1,.92-.9184l16.2606-.0019a.9056.9056,0,0,1,.9374.9155v3.1115a5.1053,5.1053,0,0,1-1.2241,2.2838l-8.423,12.0259a18.0425,18.0425,0,0,1,9.2747,1.9923,1.659,1.659,0,0,1,.8628,1.4156v3.8715c0,.5328-.5845,1.15-1.1982.8287a18.7266,18.7266,0,0,0-17.18.0326c-.5655.3008-1.1572-.3076-1.1572-.8419V47.7847a4.3777,4.3777,0,0,1,.6054-2.4934l9.7587-14-8.4966-.001A.9044.9044,0,0,1,113.6948,30.3766Z" fill-rule="evenodd"/><path d="M54.3814,53.0362H49.4346A.9324.9324,0,0,1,48.55,52.2l.0041-25.389a.9317.9317,0,0,1,.9545-.9135l4.6069-.0014a.93.93,0,0,1,.8989.8531v3.3143h.0931c1.2-3.2056,3.4632-4.7021,6.51-4.7021,3.0935,0,5.0334,1.4966,6.4185,4.7021a7.3061,7.3061,0,0,1,12.56-1.9236c1.57,2.1376,1.2477,5.2355,1.2477,7.96l-.0048,16.0227a.9329.9329,0,0,1-.9545.9135h-4.94a.9271.9271,0,0,1-.8872-.9116l-.0017-13.4605a32.4356,32.4356,0,0,0-.1389-4.7538,2.5786,2.5786,0,0,0-2.9083-2.1917,3.2816,3.2816,0,0,0-2.9565,2.0835,15.3744,15.3744,0,0,0-.4616,4.862V52.1227a.9327.9327,0,0,1-.9535.9135H62.6953a.9279.9279,0,0,1-.8884-.9116L61.802,38.6641c0-2.8312.4616-6.9976-3.0471-6.9976-3.5561,0-3.4172,4.0592-3.4172,6.9976l-.0017,13.4586A.9333.9333,0,0,1,54.3814,53.0362Z" fill-rule="evenodd"/><path d="M145.8109,25.3609c7.3423,0,11.3128,6.3055,11.3128,14.319,0,7.7459-4.3858,13.8915-11.3128,13.8915-7.2038,0-11.129-6.3059-11.129-14.1586C134.6819,31.505,138.6529,25.3609,145.8109,25.3609Zm.0449,5.1833c-3.6473,0-3.8779,4.9674-3.8779,8.0667s-.0458,9.7236,3.833,9.7236c3.8335,0,4.0173-5.3427,4.0173-8.6a23.4616,23.4616,0,0,0-.74-6.7325A3.0962,3.0962,0,0,0,145.8558,30.5442Z" fill-rule="evenodd"/><path d="M166.646,53.0362h-4.9288a.9286.9286,0,0,1-.8877-.9116l-.0083-25.3987a.9368.9368,0,0,1,.9506-.8287l4.5881-.0014a.9409.9409,0,0,1,.8794.7107V30.49h.0931c1.3858-3.4737,3.3241-5.1292,6.7413-5.1292a6.4844,6.4844,0,0,1,5.7726,2.9926c1.2928,2.03,1.2928,5.4485,1.2928,7.9068V52.2372a.9387.9387,0,0,1-.9482.799h-4.9586a.9323.9323,0,0,1-.8808-.799V38.452c0-2.7786.3237-6.84-3.0935-6.84a3.238,3.238,0,0,0-2.8634,2.03,11.2892,11.2892,0,0,0-.7858,4.81V52.1227A.9462.9462,0,0,1,166.646,53.0362Z" fill-rule="evenodd"/><path d="M100.7334,40.9113c0,1.9284.0456,3.5337-.9267,5.2481a4.0192,4.0192,0,0,1-3.424,2.2487c-1.8972,0-3.0077-1.4463-3.0077-3.5883,0-4.2132,3.7791-4.979,7.3584-4.979Zm4.9859,12.0615a1.0217,1.0217,0,0,1-1.168.1151,12.0821,12.0821,0,0,1-2.8359-3.2963C99,52.5575,97.0774,53.3877,93.56,53.3877c-4.1642,0-7.4042-2.5709-7.4042-7.71a8.4031,8.4031,0,0,1,5.2757-8.0852c2.6835-1.1782,6.4324-1.3922,9.3024-1.7144v-.642a6.3323,6.3323,0,0,0-.6022-3.5873,3.3053,3.3053,0,0,0-2.7766-1.2855,3.7673,3.7673,0,0,0-3.9763,2.97,1.046,1.046,0,0,1-.8589.9106l-4.795-.52a.8718.8718,0,0,1-.7385-1.0349c1.1032-5.8165,6.3556-7.5734,11.0624-7.5734,2.4074,0,5.5535.6415,7.4508,2.4632,2.4072,2.2487,2.1751,5.2476,2.1751,8.5147v7.7055c0,2.3194.9633,3.3358,1.867,4.5842a.9327.9327,0,0,1-.0161,1.3152c-1.01.8472-2.8054,2.4062-3.793,3.2855Z" fill-rule="evenodd"/><path d="M35.8831,40.9113c0,1.9284.0466,3.5337-.9252,5.2481a4.0187,4.0187,0,0,1-3.4245,2.2487c-1.8968,0-3.0079-1.4463-3.0079-3.5883,0-4.2132,3.78-4.979,7.3576-4.979Zm4.9878,12.0615a1.0226,1.0226,0,0,1-1.1685.1151,12.0292,12.0292,0,0,1-2.8356-3.2963c-2.7162,2.7659-4.639,3.5961-8.1559,3.5961-4.165,0-7.4043-2.5709-7.4043-7.71a8.4018,8.4018,0,0,1,5.2754-8.0852c2.6835-1.1782,6.4327-1.3922,9.301-1.7144v-.642a6.3357,6.3357,0,0,0-.6008-3.5873,3.3061,3.3061,0,0,0-2.7766-1.2855,3.766,3.766,0,0,0-3.976,2.97,1.0462,1.0462,0,0,1-.86.9106l-4.7943-.52a.8715.8715,0,0,1-.7388-1.0349c1.1017-5.8165,6.3542-7.5734,11.0627-7.5734,2.4064,0,5.5533.6415,7.4508,2.4632,2.4057,2.2487,2.1751,5.2476,2.1751,8.5147v7.7055c0,2.3194.9626,3.3358,1.8663,4.5842a.9338.9338,0,0,1-.0154,1.3152c-1.0108.8472-2.8068,2.4062-3.794,3.2855Z" fill-rule="evenodd"/></svg>