<svg id="Layer_2" data-name="Layer 2" xmlns="http://www.w3.org/2000/svg" width="735" height="1000" viewBox="0 0 735 1000"><title>generic-gift.svg</title><path d="M655.5,324H559.456A79.9561,79.9561,0,0,0,495.5,196c-44.488,0-81.793,35.238-100.07,56.242a236.206,236.206,0,0,0-27.929,39.505,236.255,236.255,0,0,0-27.93-39.505C321.293,231.238,283.989,196,239.5,196a79.9571,79.9571,0,0,0-63.957,128H79.5a16.0007,16.0007,0,0,0-16,16v96a16.0007,16.0007,0,0,0,16,16h16V756a48.0541,48.0541,0,0,0,48,48h448a48.0534,48.0534,0,0,0,48-48V452h16a16,16,0,0,0,16-16V340A16,16,0,0,0,655.5,324ZM419.57,273.248C444.592,244.492,472.268,228,495.5,228a48,48,0,0,1,0,96H387.409C392.943,309.862,404.133,290.989,419.57,273.248ZM415.5,772h-96V356h96Zm-224-496a48.0547,48.0547,0,0,1,48-48c23.233,0,50.908,16.492,75.93,45.248,15.437,17.741,26.627,36.614,32.161,50.752H239.5A48.0547,48.0547,0,0,1,191.5,276Zm-96,80h192v64H95.5Zm32,400V452h160V772h-144A16.0187,16.0187,0,0,1,127.5,756Zm480,0a16.0186,16.0186,0,0,1-16,16h-144V452h160Zm32-336h-192V356h192Z" fill="#ccc"/></svg>