<svg id="Layer_2" data-name="Layer 2" xmlns="http://www.w3.org/2000/svg" width="735" height="1000" viewBox="0 0 735 1000"><title>generic-supplement</title><path d="M214.3333,176.3333s1.3333-55,1.6667-60,2.6667-6.6667,8-6.6667H378.3333c57.6667,0,128,1.3333,136.3333,1.6667s10,3.6667,10,9.6667v56.3333H527v8.3333H506.6667L507.3333,189h16v7.3333h-16V232c0,8.6667,4,12,11,14.3333S551,256,562,270s18,25.6667,18,47v23.3333h1.6667l-4,468.3333-1.3333,2V823c0,8.3333-.3333,22.6667-11,33.6667s-25,18-56,24.6667S393.6667,892,367.5,892s-104.8333-5-136.8333-11.3333-49-10.6667-64-26.3333c-9-8.6667-10.6667-24.6667-10.6667-33.6667v-10L154,807l1.6667-467.6667,2-2.3333s0-28.3333,1.6667-36.6667,8.3333-31.6667,26.6667-42,30.3333-12.3333,37.6667-15S232,236,232,230s1-34,1-34l-15.6667-.6667V187l15.3333.3333L233,184l-20-.3333Z" fill="#ccc"/></svg>